HIERARCHY
ROOT Hips
{
    OFFSET 0.000000 97.120003 0.000000
    CHANNELS 6 Xposition Yposition Zposition Yrotation Xrotation Zrotation
    JOINT RightUpLeg
    {
        OFFSET -11.000000 -0.000000 0.000000
        CHANNELS 3 Yrotation Xrotation Zrotation
        JOINT RightLeg
        {
            OFFSET 0.000000 -45.062000 0.000000
            CHANNELS 3 Yrotation Xrotation Zrotation
            JOINT RightFoot
            {
                OFFSET 0.000000 -42.057999 0.000000
                CHANNELS 3 Yrotation Xrotation Zrotation
                End Site
                {
                    OFFSET 0.000000 -10.000000 15.120000
                }
            }
        }
    }
    JOINT LeftUpLeg
    {
        OFFSET 11.000000 -0.000000 0.000000
        CHANNELS 3 Yrotation Xrotation Zrotation
        JOINT LeftLeg
        {
            OFFSET 0.000000 -45.062000 0.000000
            CHANNELS 3 Yrotation Xrotation Zrotation
            JOINT LeftFoot
            {
                OFFSET 0.000000 -42.057999 0.000000
                CHANNELS 3 Yrotation Xrotation Zrotation
                End Site
                {
                    OFFSET 0.000000 -10.000000 15.120000
                }
            }
        }
    }
    JOINT Spine
    {
        OFFSET 0.000000 8.120000 0.000000
        CHANNELS 3 Yrotation Xrotation Zrotation
        JOINT Spine1
        {
            OFFSET 0.000000 17.980000 0.000000
            CHANNELS 3 Yrotation Xrotation Zrotation
            JOINT Spine2
            {
                OFFSET 0.000000 12.760000 0.000000
                CHANNELS 3 Yrotation Xrotation Zrotation
                JOINT Neck
                {
                    OFFSET 0.000000 19.139999 0.000000
                    CHANNELS 3 Yrotation Xrotation Zrotation
                    JOINT Neck1
                    {
                        OFFSET 0.000000 4.250000 0.000000
                        CHANNELS 3 Yrotation Xrotation Zrotation
                        JOINT Head
                        {
                            OFFSET 0.000000 4.250000 0.000000
                            CHANNELS 3 Yrotation Xrotation Zrotation
                            End Site
                            {
                                OFFSET 0.000000 19.120001 0.000000
                            }
                        }
                    }
                }
                JOINT RightShoulder
                {
                    OFFSET -2.900000 13.340000 0.000000
                    CHANNELS 3 Yrotation Xrotation Zrotation
                    JOINT RightArm
                    {
                        OFFSET -16.100000 0.000000 0.000000
                        CHANNELS 3 Yrotation Xrotation Zrotation
                        JOINT RightForeArm
                        {
                            OFFSET -28.000000 0.000000 0.000000
                            CHANNELS 3 Yrotation Xrotation Zrotation
                            JOINT RightHand
                            {
                                OFFSET -26.000000 0.000000 0.000000
                                CHANNELS 3 Yrotation Xrotation Zrotation
                                JOINT RightHandThumb1
                                {
                                    OFFSET -1.937000 -0.484000 2.518000
                                    CHANNELS 3 Yrotation Xrotation Zrotation
                                    JOINT RightHandThumb2
                                    {
                                        OFFSET -3.872000 0.000000 0.000000
                                        CHANNELS 3 Yrotation Xrotation Zrotation
                                        JOINT RightHandThumb3
                                        {
                                            OFFSET -2.690000 0.000000 0.000000
                                            CHANNELS 3 Yrotation Xrotation Zrotation
                                            End Site
                                            {
                                                OFFSET -2.537000 0.000000 0.000000
                                            }
                                        }
                                    }
                                }
                                JOINT RightInHandIndex
                                {
                                    OFFSET -3.389000 0.535000 2.080000
                                    CHANNELS 3 Yrotation Xrotation Zrotation
                                    JOINT RightHandIndex1
                                    {
                                        OFFSET -5.485000 -0.096000 1.051000
                                        CHANNELS 3 Yrotation Xrotation Zrotation
                                        JOINT RightHandIndex2
                                        {
                                            OFFSET -3.806000 0.000000 0.000000
                                            CHANNELS 3 Yrotation Xrotation Zrotation
                                            JOINT RightHandIndex3
                                            {
                                                OFFSET -2.158000 0.000000 0.000000
                                                CHANNELS 3 Yrotation Xrotation Zrotation
                                                End Site
                                                {
                                                    OFFSET -1.898000 0.000000 0.000000
                                                }
                                            }
                                        }
                                    }
                                }
                                JOINT RightInHandMiddle
                                {
                                    OFFSET -3.556000 0.544000 0.796000
                                    CHANNELS 3 Yrotation Xrotation Zrotation
                                    JOINT RightHandMiddle1
                                    {
                                        OFFSET -5.441000 -0.088000 0.330000
                                        CHANNELS 3 Yrotation Xrotation Zrotation
                                        JOINT RightHandMiddle2
                                        {
                                            OFFSET -4.153000 0.000000 0.000000
                                            CHANNELS 3 Yrotation Xrotation Zrotation
                                            JOINT RightHandMiddle3
                                            {
                                                OFFSET -2.603000 0.000000 0.000000
                                                CHANNELS 3 Yrotation Xrotation Zrotation
                                                End Site
                                                {
                                                    OFFSET -2.076000 0.000000 0.000000
                                                }
                                            }
                                        }
                                    }
                                }
                                JOINT RightInHandRing
                                {
                                    OFFSET -3.539000 0.566000 -0.136000
                                    CHANNELS 3 Yrotation Xrotation Zrotation
                                    JOINT RightHandRing1
                                    {
                                        OFFSET -4.873000 -0.023000 -0.504000
                                        CHANNELS 3 Yrotation Xrotation Zrotation
                                        JOINT RightHandRing2
                                        {
                                            OFFSET -3.619000 0.000000 0.000000
                                            CHANNELS 3 Yrotation Xrotation Zrotation
                                            JOINT RightHandRing3
                                            {
                                                OFFSET -2.511000 0.000000 0.000000
                                                CHANNELS 3 Yrotation Xrotation Zrotation
                                                End Site
                                                {
                                                    OFFSET -1.952000 0.000000 0.000000
                                                }
                                            }
                                        }
                                    }
                                }
                                JOINT RightInHandPinky
                                {
                                    OFFSET -3.324000 0.494000 -1.264000
                                    CHANNELS 3 Yrotation Xrotation Zrotation
                                    JOINT RightHandPinky1
                                    {
                                        OFFSET -4.354000 -0.023000 -1.147000
                                        CHANNELS 3 Yrotation Xrotation Zrotation
                                        JOINT RightHandPinky2
                                        {
                                            OFFSET -2.898000 0.000000 0.000000
                                            CHANNELS 3 Yrotation Xrotation Zrotation
                                            JOINT RightHandPinky3
                                            {
                                                OFFSET -1.831000 0.000000 0.000000
                                                CHANNELS 3 Yrotation Xrotation Zrotation
                                                End Site
                                                {
                                                    OFFSET -1.730000 0.000000 0.000000
                                                }
                                            }
                                        }
                                    }
                                }
                            }
                        }
                    }
                }
                JOINT LeftShoulder
                {
                    OFFSET 2.900000 13.340000 0.000000
                    CHANNELS 3 Yrotation Xrotation Zrotation
                    JOINT LeftArm
                    {
                        OFFSET 16.100000 0.000000 0.000000
                        CHANNELS 3 Yrotation Xrotation Zrotation
                        JOINT LeftForeArm
                        {
                            OFFSET 28.000000 0.000000 0.000000
                            CHANNELS 3 Yrotation Xrotation Zrotation
                            JOINT LeftHand
                            {
                                OFFSET 26.000000 0.000000 0.000000
                                CHANNELS 3 Yrotation Xrotation Zrotation
                                JOINT LeftHandThumb1
                                {
                                    OFFSET 1.937000 -0.484000 2.518000
                                    CHANNELS 3 Yrotation Xrotation Zrotation
                                    JOINT LeftHandThumb2
                                    {
                                        OFFSET 3.872000 0.000000 0.000000
                                        CHANNELS 3 Yrotation Xrotation Zrotation
                                        JOINT LeftHandThumb3
                                        {
                                            OFFSET 2.690000 0.000000 0.000000
                                            CHANNELS 3 Yrotation Xrotation Zrotation
                                            End Site
                                            {
                                                OFFSET 2.537000 0.000000 0.000000
                                            }
                                        }
                                    }
                                }
                                JOINT LeftInHandIndex
                                {
                                    OFFSET 3.389000 0.535000 2.080000
                                    CHANNELS 3 Yrotation Xrotation Zrotation
                                    JOINT LeftHandIndex1
                                    {
                                        OFFSET 5.485000 -0.096000 1.051000
                                        CHANNELS 3 Yrotation Xrotation Zrotation
                                        JOINT LeftHandIndex2
                                        {
                                            OFFSET 3.806000 0.000000 0.000000
                                            CHANNELS 3 Yrotation Xrotation Zrotation
                                            JOINT LeftHandIndex3
                                            {
                                                OFFSET 2.158000 0.000000 0.000000
                                                CHANNELS 3 Yrotation Xrotation Zrotation
                                                End Site
                                                {
                                                    OFFSET 1.898000 0.000000 0.000000
                                                }
                                            }
                                        }
                                    }
                                }
                                JOINT LeftInHandMiddle
                                {
                                    OFFSET 3.556000 0.544000 0.796000
                                    CHANNELS 3 Yrotation Xrotation Zrotation
                                    JOINT LeftHandMiddle1
                                    {
                                        OFFSET 5.441000 -0.088000 0.330000
                                        CHANNELS 3 Yrotation Xrotation Zrotation
                                        JOINT LeftHandMiddle2
                                        {
                                            OFFSET 4.153000 0.000000 0.000000
                                            CHANNELS 3 Yrotation Xrotation Zrotation
                                            JOINT LeftHandMiddle3
                                            {
                                                OFFSET 2.603000 0.000000 0.000000
                                                CHANNELS 3 Yrotation Xrotation Zrotation
                                                End Site
                                                {
                                                    OFFSET 2.076000 0.000000 0.000000
                                                }
                                            }
                                        }
                                    }
                                }
                                JOINT LeftInHandRing
                                {
                                    OFFSET 3.539000 0.566000 -0.136000
                                    CHANNELS 3 Yrotation Xrotation Zrotation
                                    JOINT LeftHandRing1
                                    {
                                        OFFSET 4.873000 -0.023000 -0.504000
                                        CHANNELS 3 Yrotation Xrotation Zrotation
                                        JOINT LeftHandRing2
                                        {
                                            OFFSET 3.619000 0.000000 0.000000
                                            CHANNELS 3 Yrotation Xrotation Zrotation
                                            JOINT LeftHandRing3
                                            {
                                                OFFSET 2.511000 0.000000 0.000000
                                                CHANNELS 3 Yrotation Xrotation Zrotation
                                                End Site
                                                {
                                                    OFFSET 1.952000 0.000000 0.000000
                                                }
                                            }
                                        }
                                    }
                                }
                                JOINT LeftInHandPinky
                                {
                                    OFFSET 3.324000 0.494000 -1.264000
                                    CHANNELS 3 Yrotation Xrotation Zrotation
                                    JOINT LeftHandPinky1
                                    {
                                        OFFSET 4.354000 -0.023000 -1.147000
                                        CHANNELS 3 Yrotation Xrotation Zrotation
                                        JOINT LeftHandPinky2
                                        {
                                            OFFSET 2.898000 0.000000 0.000000
                                            CHANNELS 3 Yrotation Xrotation Zrotation
                                            JOINT LeftHandPinky3
                                            {
                                                OFFSET 1.831000 0.000000 0.000000
                                                CHANNELS 3 Yrotation Xrotation Zrotation
                                                End Site
                                                {
                                                    OFFSET 1.730000 0.000000 0.000000
                                                }
                                            }
                                        }
                                    }
                                }
                            }
                        }
                    }
                }
            }
        }
    }
}
MOTION
Frames: 4
Frame Time: 0.010417
100.756470 96.937645 -91.260338 162.090027 1.879367 -0.501450 11.567897 2.769249 -2.142991 175.586044 -178.942871 -179.074112 179.994598 -177.117920 -177.891998 20.143164 1.165720 1.001423 177.345581 -176.909424 179.349258 0.683229 -0.619070 -1.488073 3.394762 3.859701 -0.263314 3.394325 3.805390 -0.594614 15.947605 2.893619 0.291628 0.000008 -6.854820 -1.801353 0.000010 -7.997285 -1.865692 155.954803 -174.170410 -178.669937 5.526155 -6.305954 7.900971 54.386608 -15.372073 1.969192 21.406406 7.801024 -33.321564 4.718565 -5.541528 -43.007320 76.831017 32.876614 18.024179 0.000000 0.000000 -1.834643 180.000000 179.999985 178.778122 0.000000 -0.000000 0.000000 15.000008 -0.000000 4.776873 180.000000 179.999985 -176.091644 0.000002 0.000003 2.735841 0.000000 -0.000000 0.000000 0.000003 0.000002 4.901279 0.000004 0.000003 4.901274 0.000000 -0.000000 3.264254 0.000000 -0.000000 0.000000 170.000000 179.999985 -174.977356 0.000002 -0.000002 5.022646 180.000000 180.000000 -176.654922 0.000000 -0.000000 0.000000 160.000000 179.999985 -177.489868 180.000000 -179.999985 -176.234802 180.000000 -179.999985 -177.492386 173.699387 -174.252579 173.870819 158.441345 165.629288 109.581139 110.665031 165.333389 -176.654205 179.153519 178.184784 157.669678 94.538986 130.316803 136.833450 0.000001 0.000000 -2.061450 0.000000 -0.000002 -1.372926 0.000000 -0.000000 0.000000 165.000015 -179.999985 166.199738 180.000000 179.999985 168.708878 180.000000 179.999985 172.096222 0.000000 -0.000000 0.000000 0.000002 0.000000 -12.480562 0.000002 -0.000003 -12.480563 180.000000 179.999985 171.687958 0.000000 -0.000000 0.000000 10.000004 -0.000004 -13.410792 0.000000 -0.000003 -13.410789 0.000000 0.000000 -8.931587 0.000000 -0.000000 0.000000 19.999994 0.000003 -12.843099 0.000001 -0.000003 -19.264664 0.000001 0.000004 -12.830260
100.761208 96.943390 -91.254738 162.008575 1.872102 -0.507703 11.585677 2.767970 -2.144112 175.634109 -178.928116 -179.072296 0.008699 -2.864726 2.110998 20.186159 1.174595 1.003860 177.365662 -176.917206 179.349869 0.698006 -0.636475 -1.481785 3.390486 3.852890 -0.262195 3.390050 3.798613 -0.592283 15.927073 2.887887 0.291267 0.000009 -6.861978 -1.789530 0.000011 -8.005643 -1.853448 155.967072 -174.167114 -178.661682 5.518402 -6.278605 7.890894 54.375549 -14.838670 1.788173 21.165514 8.777267 -33.397827 5.409435 -5.243552 -42.418026 76.701088 33.145458 17.944887 0.000000 0.000000 -1.843527 180.000000 -180.000000 178.772217 0.000000 -0.000000 0.000000 14.999997 0.000004 4.672623 180.000000 179.999985 -176.176941 180.000000 -180.000000 -177.323868 0.000000 -0.000000 0.000000 180.000000 -179.999985 -175.250931 180.000000 -179.999985 -175.250931 0.000003 -0.000002 3.162885 0.000000 -0.000000 0.000000 170.000000 180.000000 -175.137222 180.000000 -179.999985 -175.137222 180.000000 180.000000 -176.761383 0.000000 -0.000000 0.000000 160.000015 180.000000 -177.656464 0.000000 -0.000000 3.515310 180.000000 -179.999985 -177.658813 173.700851 -174.245865 173.880661 158.328735 165.642654 109.573692 110.700195 165.359680 -176.602631 179.139053 178.171051 157.648758 94.509003 130.309830 136.803970 0.000000 -0.000002 -2.056288 180.000000 -180.000000 178.630508 0.000000 -0.000000 0.000000 165.000015 -180.000000 166.215118 180.000000 179.999985 168.721466 180.000000 179.999985 172.105026 0.000000 -0.000000 0.000000 0.000003 0.000000 -12.469026 0.000000 -0.000003 -12.469026 0.000000 0.000000 -8.304366 0.000000 -0.000000 0.000000 10.000006 -0.000004 -13.396669 0.000000 -0.000003 -13.396663 0.000003 0.000004 -8.922174 0.000000 -0.000000 0.000000 20.000000 0.000000 -12.828890 180.000000 179.999985 160.756653 180.000000 -180.000000 167.183929
100.765099 96.949722 -91.248703 161.925827 1.863649 -0.517502 11.597082 2.764324 -2.143803 175.691986 -178.913559 -179.068863 0.020893 -2.844973 2.114046 20.240232 1.182726 1.005653 177.374664 -176.926361 179.354523 0.713411 -0.655682 -1.474059 3.386510 3.845159 -0.260356 3.386077 3.790899 -0.588730 15.907770 2.880883 0.292223 0.000008 -6.871585 -1.776300 0.000011 -8.016847 -1.839744 155.973328 -174.162338 -178.651154 5.511922 -6.249551 7.878860 54.311588 -14.242404 1.570784 20.935812 9.766554 -33.483612 6.074489 -4.921297 -41.799572 76.766914 33.473240 18.117903 180.000000 -180.000000 178.098953 0.000000 -0.000003 -1.266093 0.000000 -0.000000 0.000000 15.000000 0.000000 4.610538 0.000000 -0.000000 3.772254 0.000007 -0.000000 2.640580 0.000000 -0.000000 0.000000 0.000003 -0.000000 4.595213 0.000000 0.000002 4.595212 180.000000 -180.000000 -176.939590 0.000000 -0.000000 0.000000 170.000000 -180.000000 -175.319870 180.000000 180.000000 -175.319870 0.000003 0.000002 3.116962 0.000000 -0.000000 0.000000 160.000015 -179.999985 -177.872406 0.000002 -0.000000 3.191392 180.000000 180.000000 -177.874527 173.710159 -174.242111 173.887115 158.231445 165.665558 109.568855 110.730263 165.367905 -176.559631 179.123291 178.153992 157.627167 94.467926 130.290512 136.782120 180.000000 180.000000 177.960464 180.000000 -180.000000 178.641678 0.000000 -0.000000 0.000000 165.000015 180.000000 166.222946 0.000002 -0.000007 -11.272145 180.000000 179.999985 172.109497 0.000000 -0.000000 0.000000 0.000002 -0.000003 -12.458194 0.000000 0.000003 -12.458197 0.000004 -0.000003 -8.297158 0.000000 -0.000000 0.000000 9.999998 -0.000002 -13.386087 180.000000 179.999985 166.613907 180.000000 -179.999985 171.084854 0.000000 -0.000000 0.000000 19.999996 -0.000003 -12.817809 180.000000 180.000000 160.773300 180.000000 180.000000 167.195007
100.767960 96.956673 -91.242393 161.864258 1.856462 -0.529228 11.597523 2.758629 -2.141174 175.745041 -178.903214 -179.065765 0.028593 -2.828121 2.118105 20.258183 1.189037 1.007019 177.402451 -176.933594 179.361069 0.725136 -0.672966 -1.464996 3.384065 3.838016 -0.258353 3.383635 3.783775 -0.584996 15.895633 2.874178 0.294050 0.000011 -6.882067 -1.764296 0.000014 -8.029077 -1.827311 155.969498 -174.156830 -178.640060 5.491824 -6.223420 7.866495 54.207329 -13.666385 1.349646 20.788700 10.602371 -33.555195 6.588374 -4.622547 -41.242977 76.288490 33.819614 17.908199 0.000002 -0.000003 -1.715497 0.000002 -0.000003 -1.142520 0.000000 -0.000000 0.000000 15.000002 0.000000 4.499394 0.000003 -0.000000 3.681330 0.000005 -0.000002 2.576927 0.000000 -0.000000 0.000000 180.000000 180.000000 -175.597031 0.000002 0.000002 4.402968 180.000000 -179.999985 -177.067627 0.000000 -0.000000 0.000000 170.000000 179.999985 -175.536514 0.000003 -0.000000 4.463481 180.000000 179.999985 -177.027313 0.000000 -0.000000 0.000000 160.000015 -180.000000 -178.119949 0.000005 -0.000000 2.820067 0.000003 -0.000003 1.878164 173.700775 -174.236145 173.896240 158.148911 165.695114 109.565025 110.757317 165.367538 -176.517410 179.102737 178.130417 157.600815 94.527046 130.254562 136.874069 0.000000 0.000000 -2.030542 180.000000 180.000000 178.647659 0.000000 -0.000000 0.000000 165.000015 -180.000000 166.241104 0.000000 -0.000003 -11.257272 180.000000 -180.000000 172.119904 0.000000 -0.000000 0.000000 0.000003 0.000000 -12.440078 0.000005 -0.000006 -12.440086 0.000000 0.000000 -8.285097 0.000000 -0.000000 0.000000 9.999999 -0.000004 -13.365552 0.000000 0.000000 -13.365552 0.000000 0.000000 -8.901461 0.000000 -0.000000 0.000000 20.000000 -0.000001 -12.794846 180.000000 180.000000 160.807739 0.000002 -0.000002 -12.782044
